<svg width="50" height="50" viewBox="0 0 50 50" fill="none" xmlns="http://www.w3.org/2000/svg">
<rect x="0.5" y="0.5" width="49" height="49" rx="24.5" stroke="#3666AF"/>
<path d="M34.2793 16.5068C34.3984 16.5224 34.4333 16.557 34.4463 16.5742C34.4631 16.5968 34.5228 16.6979 34.4912 16.9902V16.9912C34.4154 17.6921 33.7439 21.3424 33.0635 24.957C32.3861 28.5553 31.7089 32.0707 31.6309 32.4668L31.626 32.4932L31.623 32.5195C31.6053 32.7215 31.53 32.9106 31.4102 33.0635C31.2905 33.216 31.1329 33.3249 30.959 33.3789C30.7854 33.4328 30.6006 33.4312 30.4277 33.374C30.2548 33.3168 30.0986 33.2054 29.9814 33.0508L29.9463 33.0049L29.9023 32.9678L29.2803 32.458C28.6312 31.931 27.9193 31.3671 27.3184 30.8965C26.9173 30.5824 26.5647 30.3094 26.3125 30.1143C26.1864 30.0167 26.0852 29.9384 26.0156 29.8848C25.9808 29.858 25.9538 29.8373 25.9355 29.8232C25.9266 29.8164 25.9197 29.8112 25.915 29.8076C25.9127 29.8058 25.9104 29.8037 25.9092 29.8027L25.9082 29.8018L25.4434 29.4453L25.1641 29.96L25.1631 29.9619C25.1623 29.9634 25.1608 29.9658 25.1592 29.9688C25.1559 29.9748 25.1509 29.9843 25.1445 29.9961C25.1317 30.0197 25.1129 30.0545 25.0889 30.0986C25.0405 30.1873 24.9701 30.3143 24.8857 30.4678C24.7169 30.775 24.4887 31.1878 24.251 31.6104C24.0128 32.0336 23.7668 32.4646 23.5615 32.8086C23.4587 32.9808 23.3679 33.1279 23.2949 33.2402C23.2584 33.2964 23.228 33.3408 23.2041 33.374C23.1962 33.385 23.1886 33.3929 23.1836 33.3994C23.1637 33.4152 23.1446 33.4313 23.123 33.4434L23.0352 33.4814C22.9745 33.4999 22.9106 33.5047 22.8486 33.4961C22.7869 33.4875 22.7264 33.4651 22.6709 33.4297C22.635 33.4068 22.6029 33.3768 22.5732 33.3438L23.499 28.5059L30.4111 21.4072L29.7969 20.6299L20.418 26.2236C20.3006 26.1868 20.1399 26.1365 19.9482 26.0762C19.5336 25.9455 18.9738 25.769 18.3945 25.584C17.2605 25.2217 16.0903 24.8387 15.7441 24.7031C15.673 24.6568 15.611 24.5917 15.5674 24.5098C15.519 24.4187 15.4953 24.3133 15.501 24.2061C15.5067 24.0988 15.5416 23.9979 15.5986 23.9141C15.6556 23.8303 15.7317 23.7678 15.8164 23.7314L15.8359 23.7227L15.8545 23.7129C16.0536 23.6069 17.1957 23.1279 18.8613 22.4463C20.5063 21.7731 22.6204 20.9185 24.7236 20.0742C26.8267 19.23 28.9184 18.396 30.5176 17.7627C31.317 17.4461 31.9927 17.1794 32.4854 16.9873C32.7318 16.8912 32.9321 16.8144 33.0781 16.7588C33.1512 16.731 33.2102 16.7094 33.2539 16.6934C33.2757 16.6853 33.2928 16.6783 33.3057 16.6738C33.3155 16.6704 33.3206 16.6685 33.3223 16.668C33.6166 16.5781 34.0014 16.4706 34.2793 16.5068Z" fill="white" stroke="white"/>
</svg>
