<svg width="14" height="15" viewBox="0 0 14 15" fill="none" xmlns="http://www.w3.org/2000/svg">
<path d="M10 7C12.2091 7 14 8.79086 14 11C14 13.2091 12.2091 15 10 15C7.79086 15 6 13.2091 6 11C6 8.79086 7.79086 7 10 7ZM11 0C11.5523 0 12 0.447715 12 1V6.41602C11.3875 6.14842 10.7111 6 10 6C8.36426 6 6.91221 6.78565 6 8H2.55859C2.28262 8.0002 2.05859 8.22398 2.05859 8.5C2.05859 8.77602 2.28262 8.9998 2.55859 9H5.41699C5.1493 9.61255 5 10.2888 5 11H2.5C2.22386 11 2 11.2239 2 11.5C2 11.7761 2.22386 12 2.5 12H5.10059C5.25067 12.7388 5.56324 13.4186 6 14H1C0.447715 14 2.41598e-08 13.5523 0 13V1C1.93278e-07 0.447715 0.447715 1.61064e-08 1 0H11ZM10 8.5C9.72386 8.5 9.5 8.72386 9.5 9V10.5H8.5C8.22386 10.5 8 10.7239 8 11C8.00005 11.2761 8.22389 11.5 8.5 11.5H10L10.1006 11.4902C10.3284 11.4437 10.5 11.2416 10.5 11V9C10.5 8.72391 10.2761 8.50009 10 8.5ZM2.5 5C2.22386 5 2 5.22386 2 5.5C2 5.77614 2.22386 6 2.5 6H9.5C9.77614 6 10 5.77614 10 5.5C10 5.22386 9.77614 5 9.5 5H2.5ZM2.5 2C2.22386 2 2 2.22386 2 2.5C2 2.77614 2.22386 3 2.5 3H9.5C9.77614 3 10 2.77614 10 2.5C10 2.22386 9.77614 2 9.5 2H2.5Z" fill="white"/>
</svg>
