<svg width="50" height="50" viewBox="0 0 50 50" fill="none" xmlns="http://www.w3.org/2000/svg">
<rect x="0.5" y="0.5" width="49" height="49" rx="24.5" stroke="#3666AF"/>
<path d="M23.4375 20.917L23.3975 20.8223C23.1956 20.3506 22.8792 19.9429 22.4844 19.6279C22.6135 19.568 22.7523 19.5305 22.8945 19.5205C23.2821 19.5044 23.9699 19.497 24.6172 19.501C25.2655 19.5049 25.816 19.5212 26.0049 19.5459C26.1226 19.5701 26.2295 19.6331 26.3076 19.7256C26.3848 19.8171 26.4293 19.9319 26.4346 20.0518V24.3838H26.4365C26.4322 24.5232 26.4562 24.6623 26.5117 24.791C26.5715 24.9296 26.6639 25.0523 26.7803 25.1484C26.8965 25.2444 27.0341 25.3113 27.1816 25.3438C27.3129 25.3726 27.4481 25.3711 27.5791 25.3438C27.7616 25.3168 27.8822 25.2101 27.9355 25.1562C28.0039 25.0873 28.0583 25.008 28.0996 24.9395C28.1838 24.7998 28.2655 24.6207 28.3418 24.4316C28.4964 24.0483 28.6638 23.5411 28.8262 23.0264C28.994 22.4944 29.1477 21.9811 29.2969 21.5127C29.4092 21.1601 29.5047 20.8789 29.5791 20.6924L29.6465 20.5381L29.6514 20.5273C29.8222 20.161 30.097 19.8537 30.4404 19.6426L30.4795 19.6182L30.5146 19.5859C30.5643 19.541 30.6272 19.5147 30.6934 19.5088H34.4189L34.4561 19.5254C34.4712 19.5376 34.4835 19.5536 34.4912 19.5723C34.4989 19.5911 34.5013 19.6118 34.499 19.6318C34.4966 19.6521 34.489 19.6715 34.4775 19.6875L34.4492 19.7275L34.4287 19.7734C34.3677 19.9094 34.1674 20.2666 33.8779 20.7598C33.5957 21.2408 33.2449 21.8232 32.8984 22.3916C32.5521 22.9599 32.2108 23.513 31.9482 23.9336C31.8171 24.1436 31.706 24.3198 31.624 24.4482C31.5412 24.578 31.5033 24.6348 31.499 24.6416L31.4932 24.6484L31.4883 24.6553C31.2828 24.9337 31.1446 25.256 31.084 25.5967L31.0693 25.6816L31.083 25.7666C31.1505 26.1721 31.3358 26.5486 31.6152 26.8496V26.8506C31.8697 27.139 33.9028 29.3836 34.2236 29.7168H34.2246C34.3319 29.8404 34.4083 29.987 34.4512 30.1445C34.4172 30.2326 34.3603 30.3104 34.2852 30.3682H34.2842C34.1854 30.444 34.0625 30.4811 33.9385 30.4727L33.9219 30.4717H30.8867C30.5116 30.3295 30.1654 30.1187 29.8672 29.8486L29.8643 29.8467L29.7363 29.7207C29.5756 29.5559 29.3261 29.2837 29.0674 28.9971C28.7448 28.6397 28.4081 28.2609 28.3135 28.166H28.3125C28.2096 28.0527 28.0842 27.9621 27.9424 27.9033C27.8249 27.8546 27.6996 27.8277 27.5732 27.8242L27.4941 27.8262C27.3925 27.8262 27.077 27.8223 26.8086 28.0508C26.5266 28.291 26.4234 28.668 26.4336 29.1162L26.4346 29.1328L26.4355 29.1504C26.4716 29.551 26.3934 29.9522 26.2139 30.3105C26.1467 30.3642 26.0718 30.4073 25.9912 30.4375C25.8869 30.4765 25.7752 30.4939 25.6641 30.4883L25.6367 30.4873L25.6094 30.4883C24.354 30.5646 23.1049 30.2526 22.0322 29.5938C21.0667 28.9919 19.9953 27.8569 19.0127 26.5635C18.0362 25.278 17.1816 23.8807 16.6426 22.8008L16.6338 22.7842L16.624 22.7676L16.4014 22.3721C15.9326 21.4819 15.6341 20.5114 15.5166 19.5098H18.6152C18.6843 19.5593 18.7426 19.6231 18.7861 19.6973L18.791 19.7061C18.7975 19.7204 18.8074 19.7426 18.8203 19.7744C18.8482 19.8433 18.8848 19.9395 18.9287 20.0576C19.0166 20.2938 19.1266 20.6002 19.2432 20.9209C19.3588 21.2391 19.4804 21.5702 19.5879 21.8477C19.6893 22.1094 19.7944 22.367 19.876 22.5078C19.9784 22.6845 20.3421 23.3664 20.7451 23.9805C20.9472 24.2884 21.1742 24.6028 21.4014 24.8457C21.5147 24.9669 21.6411 25.0846 21.7764 25.1748C21.9051 25.2606 22.0897 25.3535 22.3086 25.3535H22.3574L22.4053 25.3447C22.7412 25.2785 23.0369 25.0814 23.2285 24.7979C23.4082 24.5317 23.4811 24.2091 23.4375 23.8926V20.917Z" fill="white" stroke="white"/>
</svg>
