<svg width="20" height="20" viewBox="0 0 20 20" fill="none" xmlns="http://www.w3.org/2000/svg">
<path opacity="0.5" d="M10.2144 1.73047C12.4066 1.73142 14.4613 2.58407 16.0083 4.13281C17.5553 5.68162 18.4056 7.73816 18.4048 9.92773C18.4026 14.4434 14.7277 18.1182 10.2144 18.1182H10.2114C8.84031 18.1177 7.49315 17.7733 6.29736 17.1211L6.12256 17.0264L5.93115 17.0762L2.16162 18.0645L3.16553 14.3975L3.22119 14.1963L3.1167 14.0156C2.4002 12.774 2.02332 11.3651 2.02393 9.9209C2.02563 5.54635 5.47414 1.96113 9.79346 1.74121L10.2144 1.73047ZM10.2173 2.19824C5.95688 2.19825 2.49238 5.6622 2.49072 9.9209C2.49017 11.2885 2.84942 12.6235 3.53174 13.7988L3.67236 14.0312L3.72607 14.1172L3.05518 16.5723L2.82666 17.4072L3.66455 17.1875L6.1958 16.5234L6.27979 16.5732C7.39217 17.2333 8.6565 17.6016 9.95166 17.6455L10.2114 17.6504H10.2144C14.472 17.6504 17.9363 14.1856 17.938 9.92676C17.9387 7.86425 17.1356 5.92198 15.6782 4.46289C14.2207 3.00372 12.2793 2.19888 10.2173 2.19824Z" fill="white" stroke="white"/>
<path d="M7.13721 6.40625C7.28076 6.40625 7.41557 6.40743 7.52881 6.41309C7.53489 6.41339 7.54078 6.41291 7.54639 6.41309C7.55519 6.42998 7.56882 6.45033 7.58057 6.47852C7.67057 6.69484 7.82362 7.06815 7.9624 7.40527C8.08594 7.70537 8.21122 8.007 8.25732 8.10547C8.19617 8.22907 8.18583 8.25503 8.1333 8.31641C7.99284 8.48046 7.91484 8.58784 7.83447 8.66797C7.79349 8.70879 7.65299 8.83899 7.58252 9.02832C7.49435 9.2655 7.53677 9.5058 7.65967 9.7168C7.79467 9.94847 8.26243 10.7141 8.96729 11.3428C9.86049 12.1394 10.6526 12.4097 10.8218 12.4941C10.9634 12.5651 11.1564 12.6379 11.3755 12.6113C11.6149 12.5822 11.782 12.4493 11.8931 12.3223C11.9998 12.2001 12.353 11.7824 12.5493 11.5146C12.6501 11.5567 12.9118 11.6791 13.2104 11.8232L13.9526 12.1865C14.0105 12.2155 14.0651 12.2414 14.1069 12.2617C14.1112 12.2638 14.1156 12.2666 14.1196 12.2686C14.1189 12.2815 14.1209 12.2959 14.1196 12.3105C14.1074 12.4519 14.0704 12.645 13.9946 12.8574C13.962 12.9488 13.821 13.1158 13.5522 13.2881C13.2955 13.4526 13.0412 13.5463 12.9263 13.5635C12.5937 13.6132 12.2043 13.6297 11.7837 13.4961V13.4951C11.4758 13.3974 11.0892 13.2699 10.5933 13.0557C8.56391 12.1794 7.22183 10.119 7.08545 9.93652V9.93555L6.91846 9.69922C6.83849 9.57792 6.7412 9.418 6.64697 9.23242C6.45516 8.85459 6.29834 8.4111 6.29834 7.98926C6.29842 7.1292 6.73054 6.7305 6.92725 6.51562C7.01528 6.41949 7.10687 6.40632 7.13721 6.40625Z" fill="white" stroke="white"/>
</svg>
