<svg width="50" height="50" viewBox="0 0 50 50" fill="none" xmlns="http://www.w3.org/2000/svg">
<rect x="0.5" y="0.5" width="49" height="49" rx="24.5" stroke="#3666AF"/>
<g clip-path="url(#clip0_124_6100)">
<path d="M24.959 15.5H25.04C28.9933 15.5 31.1211 15.9124 32.5967 17.3398C34.1048 18.8793 34.5 20.9914 34.5 24.9443V25.0557C34.5 29.0116 34.1024 31.1363 32.5977 32.6582C31.1219 34.0869 29.0112 34.5 25.04 34.5H24.96C20.9866 34.5 18.8612 34.0884 17.4033 32.6611C15.8948 31.1216 15.5 29.0089 15.5 25.0557V24.9443C15.5 20.9895 15.8954 18.8639 17.4014 17.3408C18.8758 15.9121 20.9887 15.5 24.959 15.5ZM24.8389 16.7891C24.4867 16.7891 24.2102 17.0698 24.1943 17.4053V17.4102C24.0896 20.1796 23.7351 21.6827 22.7041 22.7139C21.7385 23.6795 20.3601 24.0516 17.9141 24.1807L17.4102 24.2031C17.0654 24.2155 16.7891 24.4995 16.7891 24.8477V25.1709C16.7893 25.4787 17.0039 25.7286 17.2822 25.7969L17.4053 25.8145H17.4102C20.1743 25.9192 21.6753 26.2758 22.7041 27.3047C23.6684 28.2693 24.0399 29.6454 24.1699 32.0869L24.1934 32.5898C24.2058 32.9343 24.489 33.2107 24.8369 33.2109H25.1611C25.5131 33.2109 25.7898 32.9303 25.8057 32.5947V32.5898C25.9116 29.8307 26.2663 28.3336 27.2949 27.3047C28.3249 26.2746 29.8246 25.9192 32.5889 25.8145L32.5879 25.8135C32.8717 25.8035 33.1074 25.6103 33.1826 25.3477H33.2109V24.8477C33.2109 24.4954 32.9302 24.22 32.5947 24.2041L32.5898 24.2031C29.8258 24.0984 28.3247 23.7428 27.2959 22.7139C26.3293 21.7471 25.9572 20.3666 25.8281 17.915L25.8057 17.4102C25.7932 17.0656 25.5094 16.7891 25.1611 16.7891H24.8389Z" fill="white" stroke="white"/>
</g>
<defs>
<clipPath id="clip0_124_6100">
<rect width="20" height="20" fill="white" transform="translate(15 15)"/>
</clipPath>
</defs>
</svg>
