<svg width="20" height="20" viewBox="0 0 20 20" fill="none" xmlns="http://www.w3.org/2000/svg">
<path d="M6.79984 14.8C5.91987 14.8 5.20789 15.52 5.20789 16.4C5.20789 17.28 5.91987 18 6.79984 18C7.6798 18 8.39978 17.28 8.39978 16.4C8.39978 15.52 7.6798 14.8 6.79984 14.8ZM2 2V3.6H3.59995L6.47985 9.672L5.39988 11.632C5.27189 11.856 5.19989 12.12 5.19989 12.4C5.19989 13.28 5.91987 14 6.79984 14H16.3995V12.4H7.13582C7.02383 12.4 6.93583 12.312 6.93583 12.2L6.95983 12.104L7.67981 10.8H13.6396C14.2396 10.8 14.7676 10.472 15.0396 9.976L17.9035 4.784C17.9695 4.66191 18.0027 4.52479 17.9998 4.38602C17.997 4.24726 17.9582 4.11161 17.8873 3.99231C17.8164 3.87302 17.7157 3.77416 17.5951 3.7054C17.4746 3.63663 17.3383 3.60032 17.1995 3.6H5.36788L4.61591 2H2ZM14.7996 14.8C13.9196 14.8 13.2076 15.52 13.2076 16.4C13.2076 17.28 13.9196 18 14.7996 18C15.6795 18 16.3995 17.28 16.3995 16.4C16.3995 15.52 15.6795 14.8 14.7996 14.8Z" fill="white"/>
</svg>
