<svg width="42" height="42" viewBox="0 0 42 42" fill="none" xmlns="http://www.w3.org/2000/svg">
<path d="M0 21C0 9.40202 9.40202 0 21 0C32.598 0 42 9.40202 42 21C42 32.598 32.598 42 21 42C9.40202 42 0 32.598 0 21Z" fill="#F5F8FB"/>
<path d="M19.9 26.5H22.1V19.9H19.9V26.5ZM21 17.7C21.3117 17.7 21.5731 17.5944 21.7843 17.3832C21.9955 17.172 22.1007 16.9109 22.1 16.6C22.0993 16.2891 21.9937 16.028 21.7832 15.8168C21.5727 15.6056 21.3117 15.5 21 15.5C20.6883 15.5 20.4273 15.6056 20.2168 15.8168C20.0063 16.028 19.9007 16.2891 19.9 16.6C19.8993 16.9109 20.0049 17.1724 20.2168 17.3843C20.4287 17.5962 20.6898 17.7015 21 17.7ZM21 32C19.4783 32 18.0483 31.7111 16.71 31.1332C15.3717 30.5553 14.2075 29.7718 13.2175 28.7825C12.2275 27.7932 11.4439 26.6291 10.8668 25.29C10.2897 23.9509 10.0007 22.5209 10 21C9.99927 19.4791 10.2882 18.0491 10.8668 16.71C11.4454 15.3709 12.229 14.2068 13.2175 13.2175C14.206 12.2282 15.3702 11.4447 16.71 10.8668C18.0498 10.2889 19.4798 10 21 10C22.5202 10 23.9502 10.2889 25.29 10.8668C26.6298 11.4447 27.794 12.2282 28.7825 13.2175C29.771 14.2068 30.555 15.3709 31.1343 16.71C31.7136 18.0491 32.0022 19.4791 32 21C31.9978 22.5209 31.7089 23.9509 31.1332 25.29C30.5575 26.6291 29.774 27.7932 28.7825 28.7825C27.791 29.7718 26.6269 30.5557 25.29 31.1343C23.9531 31.7129 22.5231 32.0015 21 32Z" fill="#EC1C24"/>
</svg>
