<svg width="30" height="30" viewBox="0 0 30 30" fill="none" xmlns="http://www.w3.org/2000/svg">
<path d="M0 15C0 6.71573 6.71573 0 15 0C23.2843 0 30 6.71573 30 15C30 23.2843 23.2843 30 15 30C6.71573 30 0 23.2843 0 15Z" fill="#4DB45E"/>
<path d="M22 20.333C22 20.5098 21.9262 20.6797 21.7949 20.8047C21.6636 20.9297 21.4855 21 21.2998 21H8.7002C8.51454 21 8.33635 20.9297 8.20508 20.8047C8.0738 20.6797 8 20.5098 8 20.333V13.2861H22V20.333ZM11.5 17.1426L14.3877 20.1426L15.3496 19.1426L14.1055 17.8496H18.5V16.4355H14.1055L15.3496 15.1426L14.3877 14.1426L11.5 17.1426ZM21.2998 9C21.4855 9 21.6636 9.07029 21.7949 9.19531C21.9262 9.32034 22 9.49018 22 9.66699V11.5713H8V9.66699C8 9.49018 8.0738 9.32034 8.20508 9.19531C8.33635 9.07029 8.51454 9 8.7002 9H21.2998Z" fill="white"/>
</svg>
