<svg width="30" height="30" viewBox="0 0 30 30" fill="none" xmlns="http://www.w3.org/2000/svg">
<path d="M0 15C0 6.71573 6.71573 0 15 0C23.2843 0 30 6.71573 30 15C30 23.2843 23.2843 30 15 30C6.71573 30 0 23.2843 0 15Z" fill="#4DB45E"/>
<path d="M16.5912 21.1914L21.3526 16.3712L23.136 18.1798L18.3746 23L16.5912 21.1914ZM19.2832 14.2554L16.6754 11.6277C16.5757 11.5291 16.4623 11.4457 16.3389 11.3803L15.3967 7.72038C15.3362 7.50738 15.1965 7.32655 15.007 7.21611C14.8175 7.10567 14.5931 7.07427 14.3812 7.12855C14.1693 7.18282 13.9865 7.31853 13.8715 7.50697C13.7564 7.69542 13.7181 7.92185 13.7647 8.13841L14.6564 11.6107L12.6963 7.4815C12.5028 7.05493 11.9981 6.89284 11.5775 7.072C11.1569 7.27675 10.9802 7.78863 11.1821 8.2152L12.6038 11.2353L9.76884 8.38582C9.44076 8.0531 8.90237 8.0531 8.57429 8.38582C8.24621 8.72708 8.25462 9.26455 8.5827 9.59727L11.7121 12.7539L11.1232 12.9842L10.2147 13.3511L8.60794 14.4772C8.60794 14.4772 7.92654 15.373 7.86765 15.7569C7.80035 16.1408 8.53223 18.0689 8.53223 18.0689H8.54064C8.67524 18.359 8.96125 18.5637 9.29775 18.5637C9.52086 18.5637 9.73483 18.4738 9.89259 18.3138C10.0503 18.1538 10.139 17.9368 10.139 17.7106C10.139 17.6253 10.1137 17.557 10.0885 17.4802L10.1053 17.4717L9.609 15.9958L10.6437 15.1597C11.0391 15.1768 11.8887 15.245 12.3009 15.2706C14.5975 17.3608 12.4271 18.1798 12.4271 18.1798L9.51647 19.0841L9.37346 19.2036C9.28714 19.2845 9.2197 19.3839 9.17605 19.4946C9.13239 19.6053 9.11362 19.7244 9.12109 19.8434L9.13791 20.7563L14.547 20.3297C14.8667 20.3382 15.1695 20.2188 15.4051 19.9884L19.2832 16.064C19.729 15.6033 19.7458 14.7417 19.2832 14.2554Z" fill="white"/>
</svg>
